<?xml version="1.0" standalone="no"?>
<!DOCTYPE svg PUBLIC "-//W3C//DTD SVG 1.1//EN" "http://www.w3.org/Graphics/SVG/1.1/DTD/svg11.dtd" >
<!--
2013-9-30: Created.
-->
<svg>
<metadata>
Created by iconfont
</metadata>
<defs>

<font id="iconfont" horiz-adv-x="1024" >
  <font-face
    font-family="iconfont"
    font-weight="500"
    font-stretch="normal"
    units-per-em="1024"
    ascent="896"
    descent="-128"
  />
    <missing-glyph />
    
    <glyph glyph-name="xihuan1" unicode="&#58950;" d="M754.508219 654.211165c-119.722732 33.290197-194.764845-15.936971-240.400209-52.603055-0.661056 0.733711-1.393743 1.51654-2.077312 2.25025-0.733711-0.733711-1.466398-1.51654-2.153036-2.25025-42.871413 34.881438-120.601752 85.892229-240.400209 52.603055-177.872107-49.52188-109.113093-314.12021 28.819372-449.366498C415.185001 90.207767 509.85515 63.905728 509.877663 63.905728c0 0 0.783853 0.195451 2.153036 0.635473 1.319042-0.440022 2.077312-0.635473 2.077312-0.635473 0.024559 0 94.718245 26.301016 211.605396 140.937916C863.623359 340.090954 932.405909 604.690308 754.508219 654.211165z"  horiz-adv-x="1024" />

    
    <glyph glyph-name="zuijin1" unicode="&#58945;" d="M506.88 807.33c-231.33 0-418.91-187.577-418.91-418.908s187.58-418.91 418.91-418.91 418.91 187.579 418.91 418.91S738.21 807.33 506.88 807.33z m178.036-661.177c-8.843-8.378-20.247-12.568-31.65-12.568-12.568 0-24.902 4.888-33.979 14.895L441.95 339.316V596.48c0 25.6 20.946 46.545 46.546 46.545s46.545-20.945 46.545-46.545v-220.625l152.436-163.84c17.222-18.851 16.291-48.408-2.56-65.862z"  horiz-adv-x="1024" />

    
    <glyph glyph-name="shoucang" unicode="&#58885;" d="M752-43.2c-9.6 0-20.8 3.2-30.4 8l-208 104-209.6-104c-20.8-11.2-48-9.6-67.2 4.8-19.2 14.4-30.4 40-25.6 64l43.2 224L89.6 411.2C72 428.8 65.6 456 72 478.4c8 24 27.2 41.6 52.8 44.8l228.8 41.6 102.4 208c11.2 22.4 33.6 36.8 57.6 36.8s48-14.4 57.6-36.8l102.4-208 228.8-40c24-3.2 44.8-20.8 51.2-44.8 8-24 1.6-49.6-16-67.2L772.8 257.6l41.6-224c4.8-25.6-6.4-49.6-25.6-64-9.6-8-22.4-12.8-36.8-12.8z"  horiz-adv-x="1024" />

    
    <glyph glyph-name="xiazai2" unicode="&#59251;" d="M512 896a512 512 0 1 0 0-1024A512 512 0 0 0 512 896zM603.574857 387.291429V567.369143c0 25.965714-23.405714 47.030857-52.297143 47.030857H472.722286c-28.891429 0-52.297143-21.065143-52.297143-47.030857v-180.077714c0-6.582857-5.851429-11.776-13.165714-11.776h-61.220572a26.404571 26.404571 0 0 1-23.625143-13.604572 21.577143 21.577143 0 0 1 3.730286-25.014857l165.961143-175.323429c4.973714-5.12 12.141714-7.972571 19.675428-7.972571 7.460571 0 14.628571 2.925714 19.602286 7.972571L697.782857 336.896a21.577143 21.577143 0 0 1 3.730286 25.014857 26.550857 26.550857 0 0 1-23.625143 13.604572H616.594286c-7.241143 0-13.092571 5.266286-13.092572 11.702857z"  horiz-adv-x="1024" />

    
    <glyph glyph-name="yigou-copy" unicode="&#58882;" d="M745.71875 751.875H290.515625c-51.046875 0-92.8125-41.765625-92.8125-92.8125v-552.65625c0-51.046875 41.765625-92.8125 92.8125-92.8125h455.203125c51.046875 0 92.8125 41.765625 92.8125 92.8125v552.65625c0 51.046875-41.765625 92.8125-92.8125 92.8125z m-3.375-267.890625l-252.703125-253.96875c-7.171875-7.171875-16.453125-10.546875-25.734375-10.546875-9.28125 0-18.5625 3.375-25.734375 10.546875l-144.703125 145.125c-13.921875 14.34375-13.921875 37.125 0 51.46875 13.921875 14.34375 37.125 14.34375 51.046875 0l118.96875-119.390625 227.390625 228.234375c13.921875 14.34375 37.125 14.34375 51.046875 0 14.765625-14.34375 14.765625-37.546875 0.421875-51.46875z"  horiz-adv-x="1024" />

    
    <glyph glyph-name="jijun" unicode="&#58923;" d="M585.4 389.7c-26.8 0-48.6 23.8-48.6 53.2 0 29.3 21.8 53.2 48.6 53.2s48.6-23.8 48.6-53.2c0-29.3-21.8-53.2-48.6-53.2z m0 0M368.8 388.8c-26.8 0-48.6 23.8-48.6 53.2 0 29.3 21.8 53.2 48.6 53.2s48.7-23.9 48.7-53.2c0-29.4-21.9-53.2-48.7-53.2z m0 0M811.1 618.5c-21.6-1.1-41.4-14.9-50.2-34.7-9.7-22.2-5-44.8 8-61l-6.2-25.8c-12.6-52.8-59.7-90-114-90-61.1 0-111.9 47-116.8 107.8l-5.8 73.1c28.2 18.7 44.8 53.4 36.7 91.2-7 32.4-33.2 58.6-65.7 65.4-55.8 11.8-105-30.6-105-84.5 0-30.1 15.4-56.6 38.8-72.1l-5.8-73.1C420.2 453.9 369.4 407 308.3 407c-54.2 0-101.4 37.3-114 90l-6.2 25.8c13 16.2 17.7 38.9 8 61-8.6 19.8-28.5 33.7-50.2 34.7-39.5 2-68.2-32.6-61.9-69 3.5-20.2 16.9-36.2 34.2-43.8l52.5-370.8H786v0.1l52.5 370.6c17.4 7.7 30.8 23.7 34.2 43.8 6.6 36.5-22.1 71.1-61.6 69.1z m0 0M693.2 15.8H260.4c-50.4 0-91.2 40.8-91.2 91.2h615.2c0-50.4-40.9-91.2-91.2-91.2z m0 0M83.5 559.8c0-32.7 26.5-59.1 59.1-59.1s59.1 26.5 59.1 59.1-26.5 59.1-59.1 59.1c-32.7 0-59.1-26.5-59.1-59.1z m0 0M811.1 618.5c-21.6-1.1-41.4-14.9-50.2-34.7-9.7-22.2-5-44.8 8-61l-6.2-25.8c-12.6-52.8-59.7-90-114-90-61.1 0-111.9 47-116.8 107.8l-5.8 73.1c28.2 18.7 44.8 53.4 36.7 91.2-7 32.4-33.2 58.6-65.7 65.4-6.3 1.4-12.6 1.8-18.7 1.8v-611.5H786v0.2l52.5 370.6c17.4 7.7 30.8 23.7 34.2 43.8 6.6 36.5-22.1 71.1-61.6 69.1z m0 0M755.8 559.8c0-32.6 26.4-59 59-59s59 26.4 59 59-26.4 59-59 59-59-26.4-59-59z m0 0M391.2 661.4c0-48.3 39.1-87.4 87.4-87.4 48.2 0 87.4 39.1 87.4 87.4 0 31.2-16.7 60-43.7 75.7-27 15.6-60.3 15.6-87.4 0-27-15.6-43.7-44.5-43.7-75.7z m0 0M476.8 107v-91.2h218.6c49.2 0 89 39.8 89 89V107H476.8z m0 0M185.3 600.5c-7-36.1-36.7-67.4-79.4-86.8 10.1-8.1 22.7-13 36.6-13 32.6 0 59.1 26.5 59.1 59.1 0.1 15.7-6.2 30-16.3 40.7z m672.4-0.5c-8.1-35.6-38.3-66.2-81-85 10.3-8.8 23.5-14.3 38.2-14.3 32.6 0 59 26.4 59 59-0.1 15.7-6.3 29.7-16.2 40.3zM539.5 724.1c1.8-5.3 2.9-10.8 2.9-16.4 0-41.1-51.3-74.5-114.5-74.5-11.4 0-22.5 1.1-32.9 3.2 10.8-36 44.2-62.2 83.7-62.2 48.2 0 87.4 39.1 87.4 87.4-0.2 24.5-10.3 46.6-26.6 62.5z m0 0M112.9 585.4c1.2-2.1 4.9-2.5 9.8-1.1s10.1 4.5 13.8 8c3.7 3.5 5.2 6.9 4 9-1.2 2.1-4.9 2.5-9.8 1.1s-10.1-4.5-13.8-8c-3.7-3.5-5.2-6.9-4-9z m0 0M824.3 587.5c4.9-2.8 10.1-4.4 13.6-4 3.5 0.4 4.8 2.6 3.4 5.8-1.4 3.2-5.3 7-10.3 9.8-4.9 2.8-10.1 4.4-13.6 4-3.5-0.4-4.8-2.6-3.4-5.8 1.5-3.2 5.4-6.9 10.3-9.8z m0 0M443.9 722.7c0-4.7 14.8-8.5 33.1-8.5s33.1 3.8 33.1 8.5-14.8 8.5-33.1 8.5c-18.2 0-33.1-3.8-33.1-8.5z m0 0"  horiz-adv-x="1024" />

    
    <glyph glyph-name="yajun" unicode="&#58943;" d="M585.4 389.7c-26.8 0-48.6 23.8-48.6 53.2 0 29.3 21.8 53.2 48.6 53.2s48.6-23.8 48.6-53.2c0-29.3-21.8-53.2-48.6-53.2z m-216.6-0.9c-26.8 0-48.6 23.8-48.6 53.2 0 29.3 21.8 53.2 48.6 53.2s48.7-23.9 48.7-53.2c0-29.4-21.9-53.2-48.7-53.2z m0 0M812.6 618.3c-21.6-1.1-41.4-14.9-50.2-34.7-9.7-22.2-5-44.8 8-61l-6.2-25.8c-12.6-52.8-59.7-90-114-90-61.1 0-111.9 47-116.8 107.8l-5.8 73.1c28.2 18.7 44.8 53.4 36.7 91.2-7 32.4-33.2 58.6-65.7 65.4-55.8 11.8-105-30.6-105-84.5 0-30.1 15.4-56.6 38.8-72.1l-5.8-73.1c-4.9-60.9-55.7-107.8-116.8-107.8-54.2 0-101.4 37.3-114 90l-6.2 25.8c13 16.2 17.7 38.9 8 61-8.6 19.8-28.5 33.7-50.2 34.7-39.5 2-68.2-32.6-61.9-69 3.5-20.2 16.9-36.2 34.2-43.8l52.5-370.8h615.2v0.2l52.5 370.6c17.4 7.7 30.8 23.7 34.2 43.8 6.8 36.4-21.9 71-61.5 69z m0 0M694.8 15.6H262c-50.4 0-91.2 40.8-91.2 91.2H786c0-50.4-40.9-91.2-91.2-91.2zM85 559.6c0-32.7 26.5-59.1 59.1-59.1s59.1 26.5 59.1 59.1-26.5 59.1-59.1 59.1S85 592.2 85 559.6z m0 0M812.6 618.3c-21.6-1.1-41.4-14.9-50.2-34.7-9.7-22.2-5-44.8 8-61l-6.2-25.8c-12.6-52.8-59.7-90-114-90-61.1 0-111.9 47-116.8 107.8l-5.8 73.1c28.2 18.7 44.8 53.4 36.7 91.2-7 32.4-33.2 58.6-65.7 65.4-6.3 1.4-12.6 1.8-18.7 1.8v-611.5h307.6v0.2L840 505.4c17.4 7.7 30.8 23.7 34.2 43.8 6.7 36.5-22 71.1-61.6 69.1z m0 0M757.4 559.6c0-32.6 26.4-59 59-59s59 26.4 59 59-26.4 59-59 59-59-26.4-59-59zM392.8 661.2c0-48.3 39.1-87.4 87.4-87.4 48.2 0 87.4 39.1 87.4 87.4 0 31.2-16.7 60-43.7 75.7-27 15.6-60.3 15.6-87.4 0-27.1-15.6-43.7-44.4-43.7-75.7z m0 0M478.4 106.8v-91.2H697c49.2 0 89 39.8 89 89v2.2H478.4zM186.9 600.3c-7-36.1-36.7-67.4-79.4-86.8 10.1-8.1 22.7-13 36.6-13 32.6 0 59.1 26.5 59.1 59.1 0.1 15.7-6.2 30-16.3 40.7z m672.4-0.5c-8.1-35.6-38.3-66.2-81-85 10.3-8.8 23.5-14.3 38.2-14.3 32.6 0 59 26.4 59 59-0.1 15.7-6.3 29.7-16.2 40.3zM541 723.9c1.8-5.3 2.9-10.8 2.9-16.4 0-41.1-51.3-74.5-114.5-74.5-11.4 0-22.5 1.1-32.9 3.2 10.8-36 44.2-62.2 83.7-62.2 48.2 0 87.4 39.1 87.4 87.4-0.1 24.5-10.2 46.6-26.6 62.5z m0 0M114.4 585.2c1.2-2.1 4.9-2.5 9.8-1.1s10.1 4.5 13.8 8c3.7 3.5 5.2 6.9 4 9-1.2 2.1-4.9 2.5-9.8 1.1s-10.1-4.5-13.8-8c-3.7-3.5-5.2-6.9-4-9z m711.5 2.1c4.9-2.8 10.1-4.4 13.6-4 3.5 0.4 4.8 2.6 3.4 5.8-1.4 3.2-5.3 7-10.3 9.8-4.9 2.8-10.1 4.4-13.6 4-3.5-0.4-4.8-2.6-3.4-5.8 1.4-3.2 5.4-6.9 10.3-9.8zM445.5 722.5c0-4.7 14.8-8.5 33.1-8.5s33.1 3.8 33.1 8.5-14.8 8.5-33.1 8.5-33.1-3.8-33.1-8.5z m0 0"  horiz-adv-x="1024" />

    
    <glyph glyph-name="guanjun" unicode="&#58944;" d="M585.4 389.7c-26.8 0-48.6 23.8-48.6 53.2 0 29.3 21.8 53.2 48.6 53.2s48.6-23.8 48.6-53.2c0-29.3-21.8-53.2-48.6-53.2z m-216.6-0.9c-26.8 0-48.6 23.8-48.6 53.2 0 29.3 21.8 53.2 48.6 53.2s48.7-23.9 48.7-53.2c0-29.4-21.9-53.2-48.7-53.2z m0 0M814 613.4c-21.8-1.1-41.9-15-50.7-35.1-9.8-22.4-5-45.3 8.1-61.7l-6.2-26.1c-12.7-53.3-60.3-90.9-115.2-90.9-61.7 0-113.1 47.4-118 108.9l-5.9 73.9c28.4 18.9 45.3 54 37.1 92.1-7 32.7-33.5 59.2-66.3 66-56.3 11.9-106-31-106-85.3 0-30.4 15.6-57.2 39.2-72.8l-5.9-73.9c-4.9-61.5-56.2-108.9-118-108.9-54.8 0-102.5 37.7-115.2 90.9l-6.2 26.1c13.1 16.3 17.9 39.3 8.1 61.7-8.7 20-28.8 34-50.7 35.1-39.9 2-68.9-32.9-62.5-69.7 3.6-20.4 17.1-36.5 34.6-44.3l53-374.6h621.5v0.2l53 374.4c17.6 7.8 31.1 23.9 34.6 44.3 6.5 36.8-22.5 71.7-62.4 69.7z m0 0M694.9 4.6H257.7c-50.9 0-92.1 41.2-92.1 92.1h621.5c0-50.9-41.3-92.1-92.2-92.1z m0 0M79 554c0-33 26.7-59.7 59.7-59.7s59.7 26.7 59.7 59.7-26.7 59.7-59.7 59.7C105.7 613.8 79 587 79 554z m0 0M814 613.4c-21.8-1.1-41.9-15-50.7-35.1-9.8-22.4-5-45.3 8.1-61.7l-6.2-26.1c-12.7-53.3-60.3-90.9-115.2-90.9-61.7 0-113.1 47.4-118 108.9l-5.9 73.9c28.4 18.9 45.3 54 37.1 92.1-7 32.7-33.5 59.2-66.3 66-6.4 1.4-12.7 1.9-18.9 1.9v-617.8h310.7v0.2l53 374.4c17.6 7.8 31.1 23.9 34.6 44.3 6.6 37-22.4 71.9-62.3 69.9z m0 0M758.1 554c0-32.9 26.7-59.6 59.6-59.6 32.9 0 59.6 26.7 59.6 59.6 0 32.9-26.7 59.6-59.6 59.6-32.8 0.1-59.6-26.6-59.6-59.6zM389.9 656.8c0-48.7 39.5-88.3 88.3-88.3 48.7 0 88.3 39.5 88.3 88.3 0 31.5-16.8 60.7-44.1 76.4-27.3 15.8-60.9 15.8-88.3 0s-44.2-44.9-44.2-76.4z m0 0M476.3 96.7v-92.1h220.8c49.7 0 90 40.2 90 89.9v2.2H476.3zM181.9 595.2c-7-36.4-37.1-68-80.2-87.7 10.2-8.2 23-13.2 37-13.2 33 0 59.7 26.8 59.7 59.7 0 16-6.4 30.4-16.5 41.2z m679.2-0.5c-8.2-36-38.7-66.8-81.9-85.9 10.4-8.9 23.8-14.5 38.5-14.5 33 0 59.6 26.7 59.6 59.6 0.1 15.9-6.2 30.1-16.2 40.8zM539.6 720c1.9-5.3 2.9-10.9 2.9-16.6 0-41.5-51.8-75.2-115.6-75.2-11.6 0-22.7 1.1-33.2 3.2 10.9-36.4 44.6-62.8 84.5-62.8 48.7 0 88.2 39.5 88.2 88.3 0 24.7-10.3 47.1-26.8 63.1z m0 0M108.7 579.9c1.2-2.1 5-2.5 9.9-1.1s10.2 4.5 13.9 8c3.7 3.5 5.2 7 4 9.1-1.2 2.1-5 2.5-9.9 1.1s-10.2-4.5-13.9-8c-3.7-3.5-5.2-6.9-4-9.1z m718.7 2.2c5-2.9 10.2-4.4 13.8-4 3.5 0.4 4.8 2.6 3.4 5.9-1.4 3.3-5.4 7-10.4 9.9-5 2.9-10.2 4.4-13.8 4-3.5-0.4-4.8-2.6-3.4-5.9 1.4-3.3 5.4-7 10.4-9.9zM443.1 718.7c0-4.7 15-8.6 33.5-8.6s33.5 3.8 33.5 8.6c0 4.7-15 8.6-33.5 8.6-18.5-0.1-33.5-3.9-33.5-8.6z m0 0"  horiz-adv-x="1024" />

    
    <glyph glyph-name="xiazai" unicode="&#58978;" d="M486.4 313.344l-64.9216 64.896a25.6 25.6 0 0 1-36.1984-36.1984l108.6208-108.6208a25.6 25.6 0 0 1 36.1984 0l108.6208 108.6208a25.6 25.6 0 1 1-36.1984 36.1984L537.6 313.3184V563.2a25.6 25.6 0 0 1-51.2 0v-249.856z m168.192-239.0272a25.6 25.6 0 1 1 22.016-46.2336A384 384 0 0 1 896 375.1168c0 212.0704-171.9296 384-384 384-212.0704 0-384-171.9296-384-384a384 384 0 0 1 219.392-347.0336 25.6 25.6 0 1 1 22.016 46.2336A332.8 332.8 0 0 0 179.2 375.1168c0 183.808 148.992 332.8 332.8 332.8s332.8-148.992 332.8-332.8a332.8 332.8 0 0 0-190.208-300.8zM512 76.8a25.6 25.6 0 1 1 0-51.2 25.6 25.6 0 0 1 0 51.2z"  horiz-adv-x="1024" />

    
    <glyph glyph-name="bofangliang-" unicode="&#59095;" d="M773.737166 0.938628c-35.996842 0-65.282842 27.883047-65.282842 62.155618V255.105375c0 34.277688 29.286 62.165852 65.282842 62.165851h13.281491c23.861454 0 47.63695-4.782933 69.311599-13.890358v69.703525c0 92.261287-35.928281 178.99979-101.167121 244.23863-65.237817 65.237817-151.977343 101.166097-244.23863 101.166097s-178.99979-35.928281-244.237607-101.166097c-65.23884-65.23884-101.167121-151.977343-101.16712-244.23863v-71.448262c23.372314 10.250458 49.208748 15.635095 75.289753 15.635095h9.450233c35.997865 0 65.283866-27.887141 65.283865-62.165851v-192.012152c0-34.272571-29.287023-62.155618-65.283865-62.155619h-13.280468c-50.794873 0-98.509594 21.170159-130.907469 58.081837-29.600155 33.68724-42.790572 76.146261-37.138852 119.549793 4.463662 34.299177 21.48329 66.62542 48.014551 91.308589V373.084393c0 53.184293 10.41828 104.780415 30.963199 153.355737 19.84293 46.915519 48.249911 89.048105 84.429924 125.228119 36.180014 36.180014 78.3126 64.586994 125.228119 84.429924 48.575322 20.545942 100.171444 30.963199 153.355737 30.963199s104.780415-10.417257 153.355737-30.963199c46.915519-19.843954 89.048105-48.249911 125.228119-84.429924 36.180014-36.180014 64.586994-78.313623 84.429925-125.228119 20.545942-48.575322 30.963199-100.171444 30.963199-153.355737v-100.638072a166.504198 166.504198 0 0 0 13.024641-13.257955c29.600155-33.68724 42.790572-76.146261 37.138852-119.549793-10.290367-79.071893-84.181261-138.700969-171.876556-138.700969h-9.451256z m0 266.812765c-8.691963 0-15.764032-5.672186-15.764032-12.644995v-192.012152c0-6.967692 7.072069-12.635785 15.764032-12.635785h9.451256c62.903655 0 115.681696 41.085744 122.767068 95.568613 3.790326 29.069059-5.174859 57.657164-25.241894 80.499405-23.01518 26.198685-57.164954 41.224914-93.694939 41.224914h-13.281491z m-532.926612 0c-62.903655 0-115.681696-41.085744-122.767067-95.569636-3.790326-29.065989 5.17179-57.654095 25.233707-80.500429 23.013133-26.197662 57.167001-41.222867 93.703125-41.222867h13.280468c8.691963 0 15.764032 5.668093 15.764032 12.635785V255.105375c0 6.972808-7.072069 12.644995-15.764032 12.644994h-9.450233z"  horiz-adv-x="1024" />

    
    <glyph glyph-name="fenxiang" unicode="&#58928;" d="M919.253333 424.746667c-22.4 0-40.704-18.346667-40.704-40.746667 0-201.6-164.949333-366.549333-366.549333-366.549333S145.450667 182.4 145.450667 384 310.4 750.549333 512 750.549333c22.4 0 40.746667 18.325333 40.746667 40.725334S534.4 832 512 832C265.6 832 64 630.4 64 384s201.6-448 448-448 448 201.6 448 448c0 22.4-18.346667 40.746667-40.746667 40.746667zM688.96 707.712l79.296-10.176-286.72-286.997333c-16.277333-16.277333-16.277333-40.704 0-57.002667 8.128-8.128 18.304-12.202667 28.458667-12.202667 10.176 0 20.352 4.053333 28.48 12.202667l286.72 287.018667 10.176-79.381334c2.026667-20.373333 20.330667-36.650667 40.661333-36.650666h6.101333c22.378667 2.048 38.634667 22.4 34.56 44.8l-16.256 132.288c-4.053333 36.650667-34.56 67.178667-71.168 71.253333l-132.181333 16.277333c-22.378667 2.026667-42.709333-12.224-44.736-34.602666-2.026667-22.4 14.229333-42.752 36.608-46.826667z"  horiz-adv-x="1024" />

    
    <glyph glyph-name="pinglun" unicode="&#59071;" d="M512 839.111111C261.688889 839.111111 56.888889 634.311111 56.888889 384c0-56.888889 11.377778-102.4 28.444444-147.911111 11.377778-28.444444 22.755556-51.2 68.266667-119.466667v-102.4c0-45.511111 39.822222-85.333333 85.333333-85.333333H512c250.311111 0 455.111111 204.8 455.111111 455.111111s-204.8 455.111111-455.111111 455.111111z m0-853.333333H244.622222c-17.066667 0-28.444444 11.377778-28.444444 28.444444v119.466667l-11.377778 11.377778c-45.511111 73.955556-56.888889 85.333333-68.266667 113.777777C119.466667 298.666667 113.777778 332.8 113.777778 384c0 221.866667 176.355556 398.222222 398.222222 398.222222s398.222222-176.355556 398.222222-398.222222-176.355556-398.222222-398.222222-398.222222zM398.222222 440.888889c-17.066667 0-28.444444-11.377778-28.444444-28.444445v-56.888888c0-17.066667 11.377778-28.444444 28.444444-28.444445s28.444444 11.377778 28.444445 28.444445v56.888888c0 17.066667-11.377778 28.444444-28.444445 28.444445zM625.777778 440.888889c-17.066667 0-28.444444-11.377778-28.444445-28.444445v-56.888888c0-17.066667 11.377778-28.444444 28.444445-28.444445s28.444444 11.377778 28.444444 28.444445v56.888888c0 17.066667-11.377778 28.444444-28.444444 28.444445z"  horiz-adv-x="1024" />

    
    <glyph glyph-name="xia" unicode="&#58917;" d="M246.266795 564.949259C234.028248 577.187806 213.828634 577.126141 201.331856 564.629364 189.200556 552.498063 188.691857 532.014529 201.011961 519.694425L480.945257 239.761126C493.183805 227.522579 513.383419 227.584243 525.880196 240.081024 526.327405 240.52823 526.758819 240.98679 527.174378 241.455872 527.652734 241.880723 528.12141 242.32224 528.579625 242.780454L806.999757 521.200584C819.761472 533.962299 819.933222 554.395328 807.436442 566.892105 795.305146 579.023406 774.482874 579.193371 761.744922 566.455418L503.252779 307.963275 246.266795 564.949259Z"  horiz-adv-x="1024" />

    
    <glyph glyph-name="xunhuanbofang" unicode="&#59049;" d="M356.078933 32.221867C162.133333 32.221867 4.3008 190.020267 4.3008 384S162.133333 735.778133 356.078933 735.778133h98.235734l-33.553067 33.518934a23.893333 23.893333 0 0 0 33.792 33.792L528.896 728.746667A23.8592 23.8592 0 0 0 512 687.957333h-155.921067c-167.594667 0-303.957333-136.362667-303.957333-303.957333s136.362667-303.957333 303.957333-303.957333a23.893333 23.893333 0 1 0 0-47.8208zM586.308267-42.0864a23.790933 23.790933 0 0 0-16.896 6.997333L495.069867 39.253333a23.8592 23.8592 0 0 0-5.154134 26.043734 23.8592 23.8592 0 0 0 22.050134 14.779733h155.921066c167.6288 0 303.991467 136.362667 303.991467 303.957333 0 167.6288-136.362667 304.0256-303.991467 304.0256a23.893333 23.893333 0 1 0 0 47.786667c193.979733 0 351.778133-157.832533 351.778134-351.8464 0-193.979733-157.832533-351.778133-351.778134-351.778133h-98.235733l33.553067-33.518934a23.893333 23.893333 0 0 0-16.896-40.789333z"  horiz-adv-x="1024" />

    
    <glyph glyph-name="danquxunhuan1" unicode="&#59042;" d="M356.123458 32.279448C162.156656 32.279448 4.334644 190.033198 4.334644 383.965869c0 193.966802 157.822012 351.754683 351.788814 351.754683h98.195054l-33.516699 33.516699a23.891741 23.891741 0 0 0 33.789748 33.789747l74.337444-74.337444A23.857609 23.857609 0 0 0 512 687.90294h-155.876542c-167.617625 0-303.971202-136.353576-303.971201-303.937071 0-167.549363 136.353576-303.868809 303.971201-303.868809a23.891741 23.891741 0 1 0 0-47.817612zM586.337444-42.023865a23.789347 23.789347 0 0 0-16.894874 6.996867L495.105126 39.310446A23.891741 23.891741 0 1 0 512 80.131191h155.876542c167.617625 0 303.971202 136.319445 303.971201 303.868809 0 167.583494-136.353576 303.937071-303.971201 303.937071a23.891741 23.891741 0 1 0 0 47.783481c193.966802 0 351.788814-157.787881 351.788814-351.754683 0-193.932671-157.822012-351.686421-351.788814-351.686421H569.681488l33.516699-33.516699a23.891741 23.891741 0 0 0-16.860743-40.786614zM523.433904 190.818212a23.891741 23.891741 0 0 0-23.89174 23.891741v338.580094a23.891741 23.891741 0 1 0 47.783481 0v-338.580094a23.891741 23.891741 0 0 0-23.891741-23.891741zM431.826145 476.529298a23.857609 23.857609 0 0 0-11.94587 44.609293l91.64189 52.869008a23.891741 23.891741 0 1 0 23.85761-41.400973L443.737884 479.737617a23.55043 23.55043 0 0 0-11.911739-3.208319z"  horiz-adv-x="1024" />

    
    <glyph glyph-name="bofangye-caozuolan-suijibofang" unicode="&#58889;" d="M814.07241482 577.93801482h103.76533333c27.1853037 0 41.26340741 32.52527408 22.5735111 52.30743703l-87.38133333 92.96402963c-11.77220741 12.50038518-31.43300741 13.1072-43.93339259 1.3349926-12.50038518-11.77220741-13.1072-31.43300741-1.33499258-43.9333926l38.10797036-40.53522963h-31.91845926C703.75348148 640.0758518499999 632.02797037 578.90891852 485.30014815 401.59762963l-10.67994074-12.86447408c-123.79022222-149.39780741-187.62714075-203.04023703-265.54216296-203.04023703h-103.15851853c-17.11217778 0-31.06891852-13.95674075-31.06891851-31.06891852s13.95674075-31.06891852 31.06891851-31.06891852h103.15851853c104.61487408 0 176.70447408 60.68148148 313.48053333 225.61374815l10.67994074 12.86447407c133.62062222 161.29137778 197.5789037 215.90471111 280.8338963 215.90471112zM917.95911111 188.12017777999995H814.19377778c-64.5650963 0-127.06702222 40.77795555-205.34613333 126.58157037-10.8013037 11.77220741-29.12711111 12.62174815-41.02068148 1.82044444-11.77220741-10.8013037-12.62174815-29.12711111-1.82044445-41.02068148 88.35223703-96.72628148 162.99045925-145.51419259 248.18725926-145.51419259h37.86524444l-42.84112592-46.72474074c-10.8013037-11.77220741-10.07312592-30.09801482 1.69908148-41.02068148 11.77220741-10.8013037 30.09801482-10.07312592 41.02068147 1.69908148l87.5026963 95.26992592c16.86945185 18.93262222 3.76225185 48.90927408-21.48124444 48.90927408zM106.04088889 582.4284444499999h103.15851852c62.50192592 0 123.66885925-41.38477037 203.04023704-129.73700742 11.40811852-12.74311111 31.06891852-13.83537778 43.81202963-2.42725925s13.83537778 31.06891852 2.42725925 43.81202963c-90.17268148 100.48853333-163.96136297 150.36871111-249.27952592 150.36871111h-103.15851852c-17.11217778 0-31.06891852-13.95674075-31.06891852-31.06891852 0-17.11217778 13.83537778-30.94755555 31.06891852-30.94755555z"  horiz-adv-x="1024" />

    
    <glyph glyph-name="zanting1" unicode="&#58953;" d="M512 896C230.4 896 0 665.6 0 384s230.4-512 512-512 512 230.4 512 512S793.6 896 512 896z m-57.6-723.2c0-19.2-19.2-32-44.8-32-25.6 0-44.8 12.8-44.8 32V595.2c0 19.2 19.2 32 44.8 32 25.6 0 44.8-12.8 44.8-32v-422.4z m211.2 0c0-19.2-19.2-32-44.8-32-25.6 0-44.8 12.8-44.8 32V595.2c0 19.2 19.2 32 44.8 32 25.6 0 44.8-12.8 44.8-32v-422.4z"  horiz-adv-x="1024" />

    
    <glyph glyph-name="bofang1" unicode="&#58918;" d="M512 896c282.7776 0 512-229.2224 512-512s-229.2224-512-512-512S0 101.2224 0 384 229.2224 896 512 896z m-48.7424-316.16C433.9712 599.9616 409.6 585.0624 409.6 546.048v-324.0448c0-38.7072 24.064-54.1696 53.6576-33.792l231.424 158.9248c29.3376 20.1216 29.696 53.4016 0 73.728z"  horiz-adv-x="1024" />

    
    <glyph glyph-name="xiayishou-copy" unicode="&#58883;" d="M851.565 780.222h-42.943c-20.201 0-36.576-16.377-36.575-36.575v-295.68c-4.175 3.476-8.786 6.802-13.853 9.94l-502.849 311.527c-56.999 35.311-103.634 9.343-103.636-57.71v-654.727c0-67.054 46.086-92.15 102.413-55.774l505.296 326.339c4.59 2.963 8.795 6.078 12.629 9.315v-310.772c0-20.201 16.371-36.573 36.576-36.573h42.943c20.201 0 36.575 16.373 36.576 36.573v717.547c0 20.201-16.377 36.573-36.576 36.573z"  horiz-adv-x="1024" />

    
    <glyph glyph-name="shangyishou-" unicode="&#59100;" d="M257.437234 465.750909V760.924605c0 38.343283-31.082926 69.426209-69.426209 69.426209s-69.426209-31.082926-69.42621-69.426209v-753.84921c0-38.343283 31.082926-69.426209 69.42621-69.426209s69.426209 31.082926 69.426209 69.426209v295.039643c159.616324-98.455359 553.294498-342.057493 577.041342-356.591511 35.468816-22.069645 70.936609 5.517667 70.936609 42.300408V780.49329c0 41.380456-38.928614 60.691267-70.070892 42.300408-33.414017-20.404726-421.469124-260.040525-577.907059-357.042789z"  horiz-adv-x="1024" />

    
    <glyph glyph-name="icon-test" unicode="&#58880;" d="M818.18896484 352.27697752999995L512 46.08801269000003 205.81103516 352.27697752999995c-84.53979492 84.53979492-84.53979492 221.64916992 0 306.18896486 84.53979492 84.53979492 221.64916992 84.53979492 306.18896484-1e-8l73.58093262-73.58093261-30.65185548-30.65185547-73.58093261 73.58093261c-67.64831543 67.64831543-177.31933594 67.64831543-244.96765137 0-67.64831543-67.64831543-67.64831543-177.31933594 1e-8-244.96765136L512 107.39172363l275.53710938 275.53710938c67.64831543 67.64831543 67.64831543 177.31933594-1e-8 244.96765137-52.48718262 52.48718262-130.10559083 63.69323731-193.96362304 34.68933105l-32.54699708 32.54699707c82.23266602 45.15380859 187.45422364 33.04138184 257.16247559-36.66687012 84.53979492-84.53979492 84.53979492-221.64916992 0-306.18896484z"  horiz-adv-x="1024" />

    
    <glyph glyph-name="bofangliebiao1" unicode="&#58881;" d="M265.25592919 565.56639175c0 9.31109674 6.98332303 18.6221941 18.62219409 18.62219412h398.04939741c9.31109674 0 18.6221941-6.98332303 18.62219347-18.62219412-2.32777434-11.63887108-9.31109674-18.6221941-20.94996781-18.62219409H281.55034894c-9.31109674 0-16.29441978 6.98332303-16.29441976 18.62219409zM281.55034894 395.63887108h244.41629649c9.31109674 0 18.6221941-6.98332303 18.6221941-18.62219411 0-9.31109674-6.98332303-18.6221941-18.6221941-18.62219347H281.55034894c-9.31109674 0-18.6221941 6.98332303-18.6221941 18.62219347 2.32777434 11.63887108 9.31109674 18.6221941 18.62219409 18.62219411zM281.55034894 209.41693126999996h221.13855432c9.31109674 0 18.6221941-6.98332303 18.62219348-18.62219411 0-9.31109674-6.98332303-18.6221941-18.62219349-18.62219412H281.55034894c-9.31109674 0-18.6221941 6.98332303-18.6221941 18.62219412 2.32777434 11.63887108 9.31109674 18.6221941 18.62219409 18.62219411zM789.00513601 430.55548495l-69.83322774 41.89993691c-6.98332303 4.65554869-13.96664542 2.32777434-20.94996782-2.32777435-4.65554869-2.32777434-6.98332303-9.31109674-6.98332303-13.96664542v-167.59974634c-11.63887108 6.98332303-23.27774279 11.63887108-39.57216255 11.63887108-39.57216256 0-72.1610021-32.58883953-72.16100146-72.16100145S612.09429293 151.22257460000003 651.66645486 151.22257460000003c39.57216256 0 72.1610021 32.58883953 72.16100209 72.16100209v202.51635958l46.55548495-25.60551649c9.31109674-4.65554869 18.6221941-2.32777434 23.27774279 6.98332301 6.98332303 6.98332303 4.65554869 18.6221941-4.65554868 23.27774216zM651.66645486 186.13918847000002c-20.94996846 0-37.24438822 16.29441978-37.24438758 37.24438821s16.29441978 37.24438822 37.24438758 37.24438823 37.24438822-16.29441978 37.24438822-37.24438823-16.29441978-37.24438822-37.24438822-37.24438822z"  horiz-adv-x="1024" />

    
    <glyph glyph-name="fanhui" unicode="&#58897;" d="M271.658085 385.234129m37.712362 37.712362l328.248396 328.248396q37.712362 37.712362 75.424723 0l0 0q37.712362-37.712362 0-75.424724l-328.248396-328.248396q-37.712362-37.712362-75.424723 0l0 0q-37.712362 37.712362 0 75.424724ZM271.61623 384.5077m37.712362 37.712362l0 0q37.712362 37.712362 75.424723 0l330.05859-330.05859q37.712362-37.712362 0-75.424723l0 0q-37.712362-37.712362-75.424724 0l-330.058589 330.058589q-37.712362 37.712362 0 75.424724Z"  horiz-adv-x="1024" />

    
    <glyph glyph-name="bofang" unicode="&#58919;" d="M772.7 678.3a32.2 32.1 0 1 1 64.4 0 32.2 32.1 0 1 1-64.4 0zM415.8 216.1c5.9 0 11.5 1.6 16.2 4.5l231.1 134.6c10.9 5.2 18.5 16.3 18.5 29.2 0 11.9-6.4 22.3-16 27.8L439.7 543.8c-5.8 6.7-14.4 10.9-23.9 10.9-17.6 0-31.8-14.4-31.8-32.1 0-0.6 0-1.2 0.1-1.8l-0.4-0.2 0.5-269c-0.1-1.1-0.2-2.2-0.2-3.4 0-17.7 14.3-32.1 31.8-32.1zM909.8 589.4c-5.4 10.5-16.3 17.8-28.9 17.8-17.8 0-32.2-14.4-32.2-32.1 0-6 1.7-11.7 4.6-16.5l-0.1-0.1c26.9-52.4 42.1-111.8 42.1-174.7 0-211.6-171.6-383.2-383.2-383.2S128.8 172.2 128.8 383.8 300.4 766.9 512 766.9c62.5 0 121.5-15 173.6-41.5l0.2 0.4c4.6-2.6 10-4.1 15.7-4.1 17.8 0 32.2 14.4 32.2 32.1 0 13.1-7.9 24.4-19.3 29.4C653.6 814.1 584.9 831.5 512 831.5 264.7 831.5 64.3 631 64.3 383.8S264.7-63.9 512-63.9s447.7 200.4 447.7 447.7c0 74.1-18 144-49.9 205.6z"  horiz-adv-x="1024" />

    
    <glyph glyph-name="you-" unicode="&#58905;" d="M670.37 337.59c-12.31 0-24.56 4.69-33.94 14.06L319.68 668.47c-18.75 18.75-18.75 49.12 0 67.88s49.12 18.75 67.88 0l316.75-316.81c18.75-18.75 18.75-49.12 0-67.88-9.38-9.38-21.63-14.07-33.94-14.07zM353.62 17.59c-12.31 0-24.56 4.69-33.94 14.06-18.75 18.75-18.75 49.12 0 67.88l316.75 316.81c18.75 18.75 49.12 18.75 67.88 0s18.75-49.12 0-67.88l-316.75-316.8c-9.38-9.38-21.63-14.07-33.94-14.07z"  horiz-adv-x="1024" />

    


  </font>
</defs>
</svg>
